<?xml version="1.0" encoding="UTF-8"?>
<svg id="Layer_1" xmlns="http://www.w3.org/2000/svg" version="1.1" viewBox="0 0 750 750">
  <!-- Generator: Adobe Illustrator 29.2.1, SVG Export Plug-In . SVG Version: 2.1.0 Build 116)  -->
  <path d="M209.6,322.58l-1.46-17.47,44.24-16.43c1.33-5.63,2.19-10.15,2.57-13.54.38-3.4.57-7.82.57-13.26,0-11.66-.87-20.1-2.62-25.35-2.33-6.99-6.2-10.49-11.63-10.49-6.98,0-14.68,1.79-23.11,5.38-8.43,3.59-16.13,8.19-23.11,13.81-3.88,3.49-7.56,7.7-11.05,12.65-3.49,4.94-6.79,10.81-9.88,17.59-5.62,12.4-10.66,18.6-15.12,18.6-1.74,0-3.34-.53-4.8-1.6-1.45-1.06-2.18-2.18-2.18-3.34,0-2.71,1.45-7.27,4.36-13.66,1.94-5.04,3.63-10.42,5.09-16.13,1.45-5.71,2.42-10.66,2.91-14.83.48-4.17,1.02-6.64,1.6-7.41.58-.77,2.08-1.4,4.51-1.89,2.42-.48,6.83-2.57,13.23-6.25,11.43-6.59,21.41-11.72,29.94-15.41,15.12-6.59,27.91-9.88,38.37-9.88,9.88,0,17.25,6.49,22.09,19.47,3.49,9.49,5.23,20.24,5.23,32.25,0,3.3-.1,6.5-.3,9.59-.2,3.1-.78,7.65-1.75,13.65l27.63-10.14,1.73,17.69-32.87,12.44c-4.65,17.46-10.17,32.89-16.57,46.27-8.53,17.66-18.31,31.33-29.35,41.03-13.37,11.84-28.48,17.75-45.33,17.75-13.17,0-23.06-3.39-29.64-10.17-2.52-2.71-4.84-6-6.97-9.88-2.13-3.88-3.2-6.88-3.2-9.01,0-1.74,2.13-4.55,6.39-8.43,4.26-3.87,7.46-5.81,9.59-5.81,1.74,0,4.99,4.22,9.73,12.65,4.75,8.43,11.19,12.65,19.33,12.65,11.24,0,22.28-7.08,33.13-21.24,10.07-13.19,18.7-31.71,25.87-55.56l-37.18,13.75Z"/>
  <path d="M358.38,350.35v22.36c-6.84,6.84-14.99,13.07-24.46,18.68-11.23,6.67-20.7,10-28.41,10-6.49,0-10.79-4.56-12.89-13.68-1.05-4.56-1.58-11.75-1.58-21.57s1.49-20.34,4.47-32.62c2.98-12.27,7.1-25.08,12.36-38.41h22.1l-2.63,7.89c-5.44,16.31-9.3,29.38-11.58,39.2-2.28,9.82-3.42,18.33-3.42,25.52,0,8.42,1.66,12.63,5,12.63,4.38,0,12.8-5.26,25.26-15.79,5.26-4.56,10.52-9.29,15.78-14.21ZM332.59,238.02c8.59,0,12.89,2.46,12.89,7.37,0,2.81-.7,6.36-2.1,10.65-1.41,4.3-3.03,7.37-4.87,9.21-1.84,1.84-5.31,2.76-10.39,2.76-6.67,0-10-2.19-10-6.58,0-6.14,1.36-11.58,4.08-16.31,2.72-4.74,6.18-7.1,10.39-7.1Z"/>
  <g>
    <path d="M372.58,289.56h23.3c-2.6,6.86-4.77,12.97-6.53,18.35-1.76,5.38-3.47,11.21-5.14,17.51,14.08-13.34,25.16-22.65,33.22-27.94,8.06-5.28,15.15-7.92,21.26-7.92,4.82,0,8.9,2.41,12.23,7.23,3.34,4.82,5,10.84,5,18.07,0,5.56-3.15,17.79-9.45,36.69-2.97,8.9-4.45,16.31-4.45,22.24,0,5.38,1.48,8.06,4.45,8.06,2.41,0,7.6-2.78,15.57-8.34,10.01-7.04,19.36-15.57,28.08-25.57v23.63l-5.84,5c-10.75,9.27-19.51,15.75-26.27,19.46-6.77,3.7-13.3,5.56-19.6,5.56-5.93,0-10.61-2.36-14.04-7.09-3.43-4.73-5.14-11.07-5.14-19.04,0-5.74,1.39-12.79,4.17-21.13,6.12-18.53,9.17-29.93,9.17-34.19,0-5.56-1.39-8.34-4.17-8.34-4.63,0-20.01,12.42-46.14,37.25l-3.06,2.78c-.19,2.97-.37,5.89-.56,8.76-.19,2.88-.28,4.77-.28,5.7v27.8l.83,6.39h-22.24c-.74-5.74-1.11-11.02-1.11-15.84v-23.91c0-16.86,5.57-40.58,16.73-71.16Z"/>
    <path d="M501.9,289.53h23.3c-2.6,6.86-4.77,12.97-6.53,18.35-1.76,5.38-3.47,11.21-5.14,17.51,14.08-13.34,25.16-22.65,33.22-27.94,8.06-5.28,15.15-7.92,21.26-7.92,4.82,0,8.9,2.41,12.23,7.23,3.34,4.82,5,10.84,5,18.07,0,5.56-3.15,17.79-9.45,36.69-2.97,8.9-4.45,16.31-4.45,22.24,0,5.38,1.48,8.06,4.45,8.06,2.41,0,7.6-2.78,15.57-8.34,10.01-7.04,19.36-15.57,28.08-25.57v23.63l-5.84,5c-10.75,9.27-19.51,15.75-26.27,19.46-6.77,3.71-13.3,5.56-19.6,5.56-5.93,0-10.61-2.36-14.04-7.09-3.43-4.72-5.14-11.07-5.14-19.04,0-5.74,1.39-12.79,4.17-21.13,6.12-18.53,9.17-29.93,9.17-34.19,0-5.56-1.39-8.34-4.17-8.34-4.63,0-20.01,12.42-46.14,37.25l-3.06,2.78c-.19,2.97-.37,5.89-.56,8.76-.19,2.88-.28,4.77-.28,5.7v27.8l.83,6.39h-22.24c-.74-5.74-1.11-11.02-1.11-15.84v-23.91c0-16.86,5.57-40.58,16.73-71.16Z"/>
  </g>
</svg>